<mxfile host="app.diagrams.net" modified="2023-10-16T21:25:01.127Z" agent="Mozilla/5.0 (Macintosh; Intel Mac OS X 10_15_7) AppleWebKit/537.36 (KHTML, like Gecko) Chrome/118.0.0.0 Safari/537.36" etag="YCMyRthiTsxsqEAMoBJt" version="22.0.4" type="device">
  <diagram name="Page-1" id="XFwPV9x2I18TuBIPEaqW">
    <mxGraphModel dx="1434" dy="914" grid="1" gridSize="10" guides="1" tooltips="1" connect="1" arrows="1" fold="1" page="1" pageScale="1" pageWidth="850" pageHeight="1100" math="0" shadow="0">
      <root>
        <mxCell id="0" />
        <mxCell id="1" parent="0" />
        <mxCell id="xBNTIzNuBljXOqQqHO5o-1" value="&lt;br&gt;&lt;br&gt;&lt;br&gt;&lt;i&gt;abstract&lt;/i&gt; PrepareRecipe()&lt;br&gt;&lt;br&gt;BoilWater()&lt;br&gt;&lt;br&gt;PourInCup()" style="rounded=0;whiteSpace=wrap;html=1;" vertex="1" parent="1">
          <mxGeometry x="340" y="440" width="170" height="140" as="geometry" />
        </mxCell>
        <mxCell id="xBNTIzNuBljXOqQqHO5o-2" value="&lt;b&gt;Class CaffineBeverage&lt;/b&gt;" style="rounded=0;whiteSpace=wrap;html=1;" vertex="1" parent="1">
          <mxGeometry x="340" y="440" width="170" height="50" as="geometry" />
        </mxCell>
        <mxCell id="xBNTIzNuBljXOqQqHO5o-3" value="&lt;br&gt;&lt;br&gt;&lt;br&gt;&lt;i&gt;override&lt;/i&gt;&amp;nbsp;PrepareRecipe()&lt;br&gt;&lt;br&gt;BrewCoffeeGrinds()&lt;br&gt;&lt;br&gt;AddSugarAndMilk()" style="rounded=0;whiteSpace=wrap;html=1;" vertex="1" parent="1">
          <mxGeometry x="190" y="640" width="170" height="140" as="geometry" />
        </mxCell>
        <mxCell id="xBNTIzNuBljXOqQqHO5o-4" value="&lt;b&gt;Class Coffee&lt;/b&gt;" style="rounded=0;whiteSpace=wrap;html=1;" vertex="1" parent="1">
          <mxGeometry x="190" y="640" width="170" height="50" as="geometry" />
        </mxCell>
        <mxCell id="xBNTIzNuBljXOqQqHO5o-5" value="&lt;br&gt;&lt;br&gt;&lt;br&gt;&lt;i&gt;override&lt;/i&gt;&amp;nbsp;PrepareRecipe()&lt;br&gt;&lt;br&gt;SteepTeaBag()&lt;br&gt;&lt;br&gt;AddLemon()" style="rounded=0;whiteSpace=wrap;html=1;" vertex="1" parent="1">
          <mxGeometry x="480" y="640" width="170" height="140" as="geometry" />
        </mxCell>
        <mxCell id="xBNTIzNuBljXOqQqHO5o-6" value="&lt;b&gt;Class Tea&lt;/b&gt;" style="rounded=0;whiteSpace=wrap;html=1;" vertex="1" parent="1">
          <mxGeometry x="480" y="640" width="170" height="50" as="geometry" />
        </mxCell>
        <mxCell id="xBNTIzNuBljXOqQqHO5o-7" value="" style="endArrow=classic;html=1;rounded=0;exitX=0.5;exitY=0;exitDx=0;exitDy=0;entryX=0.5;entryY=1;entryDx=0;entryDy=0;" edge="1" parent="1" source="xBNTIzNuBljXOqQqHO5o-4" target="xBNTIzNuBljXOqQqHO5o-1">
          <mxGeometry width="50" height="50" relative="1" as="geometry">
            <mxPoint x="400" y="490" as="sourcePoint" />
            <mxPoint x="450" y="440" as="targetPoint" />
          </mxGeometry>
        </mxCell>
        <mxCell id="xBNTIzNuBljXOqQqHO5o-8" value="" style="endArrow=classic;html=1;rounded=0;exitX=0.5;exitY=0;exitDx=0;exitDy=0;entryX=0.5;entryY=1;entryDx=0;entryDy=0;" edge="1" parent="1" source="xBNTIzNuBljXOqQqHO5o-6" target="xBNTIzNuBljXOqQqHO5o-1">
          <mxGeometry width="50" height="50" relative="1" as="geometry">
            <mxPoint x="400" y="490" as="sourcePoint" />
            <mxPoint x="450" y="440" as="targetPoint" />
          </mxGeometry>
        </mxCell>
        <mxCell id="xBNTIzNuBljXOqQqHO5o-9" value="inherit" style="text;html=1;strokeColor=none;fillColor=none;align=center;verticalAlign=middle;whiteSpace=wrap;rounded=0;" vertex="1" parent="1">
          <mxGeometry x="395" y="600" width="60" height="30" as="geometry" />
        </mxCell>
      </root>
    </mxGraphModel>
  </diagram>
</mxfile>
